<?xml version="1.0" encoding="UTF-8"?>
<svg width="55px" height="68px" viewBox="0 0 55 68" version="1.1" xmlns="http://www.w3.org/2000/svg" xmlns:xlink="http://www.w3.org/1999/xlink">
    <!-- Generator: Sketch Beta 52 (66869) - http://www.bohemiancoding.com/sketch -->
    <title>Combined Shape</title>
    <desc>Created with Sketch Beta.</desc>
    <g id="Page-1" stroke="none" stroke-width="1" fill="none" fill-rule="evenodd">
        <path d="M53.08,56.64 C48.84,55.76 44.2,54.8 40.04,53.6 L40.04,53.28 C47.16,50.08 52.84,41.44 52.84,29.2 C52.84,14.48 43.8,2 27.32,2 C11.24,2 1,14.16 1,30.32 C1,47.92 12.36,56.88 24.52,57.68 C25.8,57.76 27.08,58 28.28,58.48 C35.48,61.52 41.88,63.84 49.56,66.08 L53.08,56.64 Z M0,0 L55,0 L55,68 L0,68 L0,0 Z M26.92,48 C18.76,48 13.8,40.16 13.88,29.92 C13.88,19.84 18.68,11.68 27,11.68 C35.32,11.68 39.96,19.84 39.96,29.68 C39.96,40.24 35.16,48 26.92,48 Z" id="Combined-Shape" fill="#000000"></path>
    </g>
</svg>